<svg xmlns="http://www.w3.org/2000/svg" viewBox="0 0 192 192" width="192" height="192">
  <defs>
    <linearGradient id="androidGradient" x1="0%" y1="0%" x2="100%" y2="100%">
      <stop offset="0%" style="stop-color:#1e40af;stop-opacity:1" />
      <stop offset="50%" style="stop-color:#3b82f6;stop-opacity:1" />
      <stop offset="100%" style="stop-color:#60a5fa;stop-opacity:1" />
    </linearGradient>
    <filter id="androidShadow" x="-20%" y="-20%" width="140%" height="140%">
      <feDropShadow dx="2" dy="2" stdDeviation="4" flood-color="#000000" flood-opacity="0.3"/>
    </filter>
  </defs>
  
  <!-- Rounded background -->
  <rect x="12" y="12" width="168" height="168" rx="36" ry="36" 
        fill="url(#androidGradient)" 
        filter="url(#androidShadow)"/>
  
  <!-- Main Majik "M" logo -->
  <path d="M48 148 L48 44 L68 44 L96 108 L124 44 L144 44 L144 148 L124 148 L124 76 L96 140 L68 76 L68 148 Z" 
        fill="#ffffff" 
        stroke="#ffffff" 
        stroke-width="2"/>
  
  <!-- Cleaning sparkles -->
  <circle cx="156" cy="36" r="6" fill="#fbbf24" opacity="0.9"/>
  <path d="M156 24 L156 48 M144 36 L168 36" stroke="#fbbf24" stroke-width="3" opacity="0.9"/>
  
  <circle cx="36" cy="156" r="4" fill="#fbbf24" opacity="0.7"/>
  <path d="M36 148 L36 164 M28 156 L44 156" stroke="#fbbf24" stroke-width="2" opacity="0.7"/>
  
  <!-- Subtitle text -->
  <text x="96" y="168" font-family="Arial, sans-serif" font-size="14" font-weight="bold" 
        text-anchor="middle" fill="#ffffff" opacity="0.8">SERVICES</text>
</svg>
