<svg xmlns="http://www.w3.org/2000/svg" viewBox="0 0 512 512" width="512" height="512">
  <defs>
    <linearGradient id="android512Gradient" x1="0%" y1="0%" x2="100%" y2="100%">
      <stop offset="0%" style="stop-color:#1e40af;stop-opacity:1" />
      <stop offset="30%" style="stop-color:#3b82f6;stop-opacity:1" />
      <stop offset="70%" style="stop-color:#60a5fa;stop-opacity:1" />
      <stop offset="100%" style="stop-color:#93c5fd;stop-opacity:1" />
    </linearGradient>
    <filter id="android512Shadow" x="-20%" y="-20%" width="140%" height="140%">
      <feDropShadow dx="4" dy="4" stdDeviation="8" flood-color="#000000" flood-opacity="0.3"/>
    </filter>
  </defs>
  
  <!-- Rounded background -->
  <rect x="32" y="32" width="448" height="448" rx="96" ry="96" 
        fill="url(#android512Gradient)" 
        filter="url(#android512Shadow)"/>
  
  <!-- Main Majik "M" logo -->
  <path d="M128 400 L128 112 L180 112 L256 288 L332 112 L384 112 L384 400 L332 400 L332 200 L256 376 L180 200 L180 400 Z" 
        fill="#ffffff" 
        stroke="#ffffff" 
        stroke-width="4"/>
  
  <!-- Cleaning sparkles -->
  <circle cx="416" cy="96" r="16" fill="#fbbf24" opacity="0.9"/>
  <path d="M416 64 L416 128 M384 96 L448 96" stroke="#fbbf24" stroke-width="8" opacity="0.9"/>
  
  <circle cx="96" cy="416" r="12" fill="#fbbf24" opacity="0.7"/>
  <path d="M96 392 L96 440 M72 416 L120 416" stroke="#fbbf24" stroke-width="6" opacity="0.7"/>
  
  <circle cx="400" cy="350" r="10" fill="#ffffff" opacity="0.6"/>
  <path d="M400 330 L400 370 M380 350 L420 350" stroke="#ffffff" stroke-width="5" opacity="0.6"/>
  
  <!-- Subtitle text -->
  <text x="256" y="450" font-family="Arial, sans-serif" font-size="36" font-weight="bold" 
        text-anchor="middle" fill="#ffffff" opacity="0.8">SERVICES</text>
</svg>
