<svg xmlns="http://www.w3.org/2000/svg" viewBox="0 0 1200 675" width="1200" height="675">
  <defs>
    <linearGradient id="twitterBgGradient" x1="0%" y1="0%" x2="100%" y2="100%">
      <stop offset="0%" style="stop-color:#1e40af;stop-opacity:1" />
      <stop offset="50%" style="stop-color:#3b82f6;stop-opacity:1" />
      <stop offset="100%" style="stop-color:#60a5fa;stop-opacity:1" />
    </linearGradient>
    <filter id="twitterTextShadow" x="-20%" y="-20%" width="140%" height="140%">
      <feDropShadow dx="3" dy="3" stdDeviation="4" flood-color="#000000" flood-opacity="0.5"/>
    </filter>
  </defs>
  
  <!-- Background -->
  <rect width="1200" height="675" fill="url(#twitterBgGradient)"/>
  
  <!-- Decorative cleaning elements -->
  <circle cx="100" cy="120" r="35" fill="#ffffff" opacity="0.1"/>
  <circle cx="1100" cy="555" r="45" fill="#ffffff" opacity="0.1"/>
  <circle cx="1050" cy="120" r="30" fill="#fbbf24" opacity="0.3"/>
  
  <!-- Main logo area -->
  <rect x="80" y="200" width="220" height="220" rx="25" fill="#ffffff" opacity="0.95"/>
  
  <!-- Majik "M" logo -->
  <path d="M125 385 L125 235 L160 235 L190 325 L220 235 L255 235 L255 385 L220 385 L220 285 L190 375 L160 285 L160 385 Z" 
        fill="#1e40af" 
        stroke="#1e40af" 
        stroke-width="2"/>
  
  <!-- Main title -->
  <text x="350" y="300" font-family="Arial, sans-serif" font-size="78" font-weight="bold" 
        fill="#ffffff" filter="url(#twitterTextShadow)">MAJIK SERVICES</text>
  
  <!-- Subtitle -->
  <text x="350" y="355" font-family="Arial, sans-serif" font-size="38" font-weight="normal" 
        fill="#ffffff" opacity="0.9">Services de Nettoyage Professionnels</text>
  
  <!-- Location -->
  <text x="350" y="410" font-family="Arial, sans-serif" font-size="30" font-weight="normal" 
        fill="#fbbf24" opacity="0.9">Goiânia, Brésil</text>
  
  <!-- Call to action -->
  <rect x="350" y="450" width="320" height="65" rx="32" fill="#fbbf24" opacity="0.9"/>
  <text x="510" y="495" font-family="Arial, sans-serif" font-size="26" font-weight="bold" 
        text-anchor="middle" fill="#1e40af">Demandez votre devis gratuit</text>
  
  <!-- Contact info -->
  <text x="350" y="560" font-family="Arial, sans-serif" font-size="22" font-weight="normal" 
        fill="#ffffff" opacity="0.8">📞 +55 62 99560-5542</text>
  
  <!-- Sparkle decorations -->
  <circle cx="950" cy="220" r="10" fill="#fbbf24"/>
  <path d="M950 200 L950 240 M930 220 L970 220" stroke="#fbbf24" stroke-width="5"/>
  
  <circle cx="850" cy="480" r="7" fill="#ffffff" opacity="0.8"/>
  <path d="M850 466 L850 494 M836 480 L864 480" stroke="#ffffff" stroke-width="4" opacity="0.8"/>
  
  <circle cx="1000" cy="550" r="5" fill="#fbbf24" opacity="0.7"/>
  <path d="M1000 540 L1000 560 M990 550 L1010 550" stroke="#fbbf24" stroke-width="3" opacity="0.7"/>
</svg>
